<svg id="Layer_1" enable-background="new 0 0 512.001 512.001" height="512" viewBox="0 0 512.001 512.001" width="512" xmlns="http://www.w3.org/2000/svg"><g><g><g clip-rule="evenodd" fill-rule="evenodd"><path d="m30.001 96.002h452v-20.001c0-10.999-9-20-20-20h-412c-11 0-20 9-20 20v20.001z" fill="#ccf5fc"/><path d="m482.001 96.002h-452v259.998h452zm-301.998 39.999c49.705 0 90 40.294 90 90s-40.294 90-90 90c-33.309 0-62.393-18.096-77.955-44.992-7.661-13.24-12.045-28.611-12.045-45.008 0-49.706 40.294-90 90-90z" fill="#fff"/><path d="m270.003 226.001c0-49.706-40.294-90-90-90v90z" fill="#88df8e"/><path d="m180.003 226.001v-90c-49.706 0-90 40.294-90 90 0 16.396 4.384 31.768 12.045 45.008z" fill="#ff5d7d"/><path d="m270.003 226.001h-90l-77.955 45.008c15.563 26.897 44.646 44.992 77.955 44.992 49.705 0 90-40.295 90-90z" fill="#ffc144"/><path d="m482.001 356h-452v40.001l160.006.001c0 11 9.006 20 20 20h91.989c10.994 0 20-9.006 20-20.001h160.006v-40.001z" fill="#ccf5fc"/><path d="m301.995 416.002h-91.989c-10.994 0-20-9-20-20.001h-160.005-20.001v40c0 11 9 20 20 20h452.002c11 0 20-9 20-20v-40h-20.001-160.006c0 10.994-9.006 20.001-20 20.001z" fill="#99ebfa"/></g><g><path d="m376.001 276.002h-45.997c-5.523 0-10-4.478-10-10s4.477-10 10-10h45.997c5.523 0 10 4.478 10 10s-4.477 10-10 10zm45.998-40.001h-91.995c-5.523 0-10-4.478-10-10s4.477-10 10-10h91.995c5.523 0 10 4.478 10 10s-4.477 10-10 10zm0-40.001h-91.995c-5.523 0-10-4.478-10-10s4.477-10 10-10h91.995c5.523 0 10 4.478 10 10s-4.477 10-10 10z" fill="#e3eaef"/></g></g><g><path d="m509.073 388.929c-1.875-1.875-4.419-2.929-7.071-2.929h-10v-310c0-16.542-13.458-30-30-30h-412.002c-16.542 0-30 13.458-30 30v310h-10c-5.523 0-10 4.478-10 10v40c0 16.542 13.458 30 30 30h452.001c16.542 0 30-13.458 30-30v-40c0-2.652-1.053-5.195-2.928-7.071zm-469.073-282.927h432v239.998h-432zm10-40.001h412c5.514 0 10 4.486 10 10v10.001h-432v-10.001c0-5.514 4.486-10 10-10zm-10 299.999h432v20.001l-150.006.001c-5.523 0-10 4.478-10 10 0 5.514-4.486 10-10 10h-91.99c-5.514 0-10-4.486-10-10.001 0-5.522-4.477-10-10-10h-150.004zm452.001 70.001c0 5.514-4.486 10-10 10h-452.001c-5.514 0-10-4.486-10-10v-30l161.72.001c4.127 11.641 15.249 20 28.286 20h91.99c13.038 0 24.159-8.36 28.286-20.001h161.72v30z" fill="#8481e2"/></g></g></svg>